<svg width="25" height="25" viewBox="0 0 25 25" fill="none" xmlns="http://www.w3.org/2000/svg">
<path d="M22.015 17.7132V20.7132C22.0161 20.9917 21.9591 21.2674 21.8475 21.5226C21.736 21.7777 21.5723 22.0068 21.3671 22.1951C21.1619 22.3834 20.9196 22.5267 20.6558 22.6159C20.3919 22.7051 20.1124 22.7383 19.835 22.7132C16.7578 22.3789 13.802 21.3274 11.205 19.6432C8.78884 18.1079 6.74035 16.0594 5.20501 13.6432C3.51499 11.0344 2.46326 8.06421 2.13501 4.97321C2.11003 4.69668 2.14289 4.41797 2.23151 4.15484C2.32014 3.8917 2.46259 3.6499 2.64978 3.44483C2.83698 3.23977 3.06482 3.07592 3.31881 2.96373C3.57279 2.85155 3.84736 2.79347 4.12501 2.79321H7.12501C7.61032 2.78844 8.08081 2.96029 8.44878 3.27675C8.81675 3.5932 9.05709 4.03266 9.12501 4.51321C9.25164 5.47328 9.48646 6.41594 9.82502 7.32321C9.95956 7.68114 9.98868 8.07013 9.90892 8.44409C9.82917 8.81806 9.64388 9.16132 9.37501 9.43321L8.10501 10.7032C9.52857 13.2068 11.6015 15.2797 14.105 16.7032L15.375 15.4332C15.6469 15.1644 15.9902 14.9791 16.3641 14.8993C16.7381 14.8196 17.1271 14.8487 17.485 14.9832C18.3923 15.3218 19.3349 15.5566 20.295 15.6832C20.7808 15.7517 21.2244 15.9964 21.5415 16.3707C21.8587 16.745 22.0272 17.2228 22.015 17.7132Z" stroke="white" stroke-width="2" stroke-linecap="round" stroke-linejoin="round"/>
</svg>
