<svg width="25" height="26" viewBox="0 0 25 26" fill="none" xmlns="http://www.w3.org/2000/svg">
<path fill-rule="evenodd" clip-rule="evenodd" d="M21.0032 4.44757C18.7469 2.18867 15.7466 0.94408 12.5506 0.942749C5.96423 0.942749 0.602496 6.30315 0.599834 12.8922C0.599834 14.998 1.14958 17.0532 2.19451 18.8662L0.5 25.0572L6.83477 23.3947C8.5812 24.3464 10.5459 24.8482 12.5453 24.8496H12.5506C19.1356 24.8496 24.4973 19.4892 24.5 12.9002C24.5 9.70814 23.2594 6.70648 21.0032 4.44757ZM12.5506 22.8329H12.5466C10.7642 22.8316 9.01647 22.3537 7.49101 21.4472L7.12895 21.2316L3.36988 22.218L4.37221 18.5534L4.13661 18.178C3.14226 16.5967 2.6178 14.769 2.6178 12.8922C2.62047 7.41596 7.07571 2.96072 12.5546 2.96072C15.2075 2.96205 17.7007 3.99633 19.5762 5.8732C21.4504 7.7514 22.4834 10.2459 22.482 12.9002C22.4794 18.3764 18.0241 22.8329 12.5506 22.8329ZM17.9988 15.3933C17.6993 15.2429 16.2324 14.5215 15.9582 14.4216C15.6854 14.3218 15.487 14.2725 15.2874 14.5707C15.0877 14.8689 14.5153 15.5411 14.3409 15.7408C14.1666 15.9404 13.9922 15.9644 13.694 15.8153C13.3958 15.6662 12.4334 15.3507 11.2927 14.3338C10.4048 13.5418 9.80582 12.5647 9.63145 12.2652C9.45707 11.9657 9.61281 11.8046 9.76323 11.6556C9.89767 11.5224 10.0614 11.3068 10.2105 11.1324C10.3596 10.9581 10.4088 10.8343 10.5087 10.6346C10.6085 10.4349 10.5592 10.2606 10.4834 10.1115C10.4088 9.96105 9.81115 8.4915 9.56223 7.89383C9.3213 7.3148 9.07504 7.392 8.89135 7.38401C8.7183 7.37603 8.51864 7.37336 8.3203 7.37336C8.12063 7.37336 7.79717 7.44791 7.52296 7.74608C7.24875 8.04558 6.47804 8.76704 6.47804 10.2366C6.47804 11.7061 7.54825 13.1264 7.69734 13.3261C7.84642 13.5258 9.80316 16.5408 12.7982 17.8346C13.5116 18.1421 14.0681 18.3258 14.5007 18.4642C15.2155 18.6918 15.8664 18.6586 16.3815 18.5827C16.9552 18.4975 18.1479 17.8612 18.3968 17.1637C18.6458 16.4662 18.6458 15.8685 18.5712 15.7434C18.4967 15.6183 18.2957 15.5424 17.9988 15.3933Z" fill="white"/>
</svg>
