<svg width="37" height="42" viewBox="0 0 37 42" fill="none" xmlns="http://www.w3.org/2000/svg">
<path fill-rule="evenodd" clip-rule="evenodd" d="M7.42865 27.4912L7.42377 34.2045C7.56118 34.5217 17.0792 39.5664 18.8274 40.5505C19.8479 41.1247 19.8275 41.1892 20.797 40.5978L36.0641 32.222C37.342 31.5536 36.9037 31.0073 36.9086 28.7187L36.9207 26.9124C35.8537 27.213 33.6848 28.6022 32.5332 29.2142C30.5434 30.2714 20.8349 35.7579 19.7884 36.133C18.2745 35.4282 16.5554 34.3515 15.0636 33.5601L10.3162 30.831C10.7184 30.4612 16.2312 27.4464 17.0104 27.1049C18.1718 27.3902 20.7373 29.1269 21.9205 29.7045C22.8229 30.1452 23.6155 29.3585 24.4382 28.9134L26.7874 27.4864C26.0046 26.912 17.5459 22.2414 17.1792 22.2206C16.7384 22.1954 8.00574 27.0159 7.42865 27.4912Z" fill="#FFCC29"/>
<path fill-rule="evenodd" clip-rule="evenodd" d="M4.61232 13.7543C6.47774 12.8681 13.4389 8.77785 14.2499 8.5721L14.1666 16.1641C12.5688 17.188 10.5655 18.1233 8.88771 19.0727L8.86469 23.8547C9.75241 23.7241 15.5342 20.3116 17.2246 19.4163C18.9203 18.5182 18.7352 18.8685 18.7366 16.748L18.6994 7.90335C17.2253 7.11637 15.6079 6.24254 14.0015 5.34838C12.8506 4.7077 12.8069 4.33333 11.5455 5.03743L0.0888341 11.265C0.0460523 17.2921 -0.109962 24.3691 0.132779 30.156C1.19233 30.5887 3.61159 32.2544 4.56814 32.3954C4.52582 26.418 4.41724 19.4656 4.61232 13.7543Z" fill="#FFCC29"/>
<path fill-rule="evenodd" clip-rule="evenodd" d="M14.8649 3.30747C16.0681 4.34395 29.0512 10.9302 31.7951 12.6938L31.7881 23.214C31.0194 23.0142 27.0142 20.6767 25.7919 20.021C24.5043 19.3302 24.8679 19.5969 24.8663 16.9241L24.8502 13.5433C23.8793 13.1061 21.1491 11.4215 20.3542 11.2688L20.3654 21.9234C20.8987 22.38 28.7043 26.617 29.9748 27.2258L35.7484 24.1769C36.5892 23.6575 36.3067 22.8902 36.3023 21.8531L36.2881 10.2053L20.2049 1.38588C18.8543 0.613483 18.8006 1.07604 17.4297 1.82876C16.5122 2.33242 15.6045 2.75607 14.8649 3.30747Z" fill="#FFCC29"/>
</svg>
